<svg xmlns="http://www.w3.org/2000/svg" viewBox="0 0 240 130"><defs><linearGradient id="body" x1="65" y1="30" x2="130" y2="97" gradientUnits="userSpaceOnUse"><stop stop-color="#A5C8CA"/><stop offset=".4" stop-color="#82B9C1"/><stop offset=".7" stop-color="#DDBD90"/><stop offset="1" stop-color="#D7E1D7"/></linearGradient></defs><path d="m61 60-45-30 8 37-9 34 48-26" fill="#AEC7CE" stroke="#839FAF" stroke-width="2"/><path d="M92 51c5-16 31-31 55-36l-8 34m-35 32 37 32 17-35" fill="#B7C9D1" stroke="#8EA9B7" stroke-width="2"/><path d="M57 68c28-35 105-39 153-3-39 41-114 41-153 3Z" fill="url(#body)" stroke="#83A9AE" stroke-width="2"/><path d="M67 65c43-10 96-7 128 1" stroke="#E4C195" stroke-width="5" stroke-linecap="round" opacity=".8"/><path d="M178 51c-11 13-12 23-5 36" stroke="#83A6A6" stroke-width="2"/><path d="m123 75-19 20 37-13" fill="#B6CFCE" stroke="#8AABAE"/><circle cx="190" cy="63" r="4" fill="#385B64"/><circle cx="191" cy="62" r="1.2" fill="#FFF"/></svg>
